<svg width="20" height="20" viewBox="0 0 20 20" fill="none" xmlns="http://www.w3.org/2000/svg">
<mask id="mask0_1333_1349" style="mask-type:alpha" maskUnits="userSpaceOnUse" x="0" y="0" width="20" height="20">
<rect width="20" height="20" fill="#D9D9D9"/>
</mask>
<g mask="url(#mask0_1333_1349)">
<path d="M4.87496 14.25C5.58329 13.7083 6.37496 13.2812 7.24996 12.9687C8.12496 12.6562 9.04163 12.5 9.99996 12.5C10.9583 12.5 11.875 12.6562 12.75 12.9687C13.625 13.2812 14.4166 13.7083 15.125 14.25C15.6111 13.6805 15.9895 13.0347 16.2604 12.3125C16.5312 11.5902 16.6666 10.8194 16.6666 9.99996C16.6666 8.15274 16.0173 6.57982 14.7187 5.28121C13.4201 3.9826 11.8472 3.33329 9.99996 3.33329C8.15274 3.33329 6.57982 3.9826 5.28121 5.28121C3.9826 6.57982 3.33329 8.15274 3.33329 9.99996C3.33329 10.8194 3.46871 11.5902 3.73954 12.3125C4.01038 13.0347 4.38885 13.6805 4.87496 14.25ZM9.99996 10.8333C9.18051 10.8333 8.48954 10.552 7.92704 9.98954C7.36454 9.42704 7.08329 8.73607 7.08329 7.91663C7.08329 7.09718 7.36454 6.40621 7.92704 5.84371C8.48954 5.28121 9.18051 4.99996 9.99996 4.99996C10.8194 4.99996 11.5104 5.28121 12.0729 5.84371C12.6354 6.40621 12.9166 7.09718 12.9166 7.91663C12.9166 8.73607 12.6354 9.42704 12.0729 9.98954C11.5104 10.552 10.8194 10.8333 9.99996 10.8333ZM9.99996 18.3333C8.84718 18.3333 7.76385 18.1145 6.74996 17.677C5.73607 17.2395 4.85413 16.6458 4.10413 15.8958C3.35413 15.1458 2.76038 14.2638 2.32288 13.25C1.88538 12.2361 1.66663 11.1527 1.66663 9.99996C1.66663 8.84718 1.88538 7.76385 2.32288 6.74996C2.76038 5.73607 3.35413 4.85413 4.10413 4.10413C4.85413 3.35413 5.73607 2.76038 6.74996 2.32288C7.76385 1.88538 8.84718 1.66663 9.99996 1.66663C11.1527 1.66663 12.2361 1.88538 13.25 2.32288C14.2638 2.76038 15.1458 3.35413 15.8958 4.10413C16.6458 4.85413 17.2395 5.73607 17.677 6.74996C18.1145 7.76385 18.3333 8.84718 18.3333 9.99996C18.3333 11.1527 18.1145 12.2361 17.677 13.25C17.2395 14.2638 16.6458 15.1458 15.8958 15.8958C15.1458 16.6458 14.2638 17.2395 13.25 17.677C12.2361 18.1145 11.1527 18.3333 9.99996 18.3333Z" fill="white" fill-opacity="0.5"/>
</g>
</svg>
