<svg width="80" height="24" viewBox="0 0 80 24" fill="none" xmlns="http://www.w3.org/2000/svg">
<path d="M79.5556 21.2322C79.5556 22.5112 78.5371 23.5472 77.2775 23.5472H2.72554C1.46646 23.5472 0.444458 22.5112 0.444458 21.2322V2.7709C0.444458 1.49251 1.46646 0.452881 2.72554 0.452881H77.2769C78.5371 0.452881 79.555 1.49251 79.555 2.7709L79.5556 21.2322Z" fill="black"/>
<path d="M77.037 0.480751C78.4089 0.480751 79.5252 1.611 79.5252 3V21C79.5252 22.389 78.4089 23.5193 77.037 23.5193H2.96296C1.59111 23.5193 0.474815 22.389 0.474815 21V3C0.474815 1.611 1.59111 0.480751 2.96296 0.480751H77.037ZM77.037 1.90735e-06H2.96296C1.33407 1.90735e-06 0 1.35075 0 3V21C0 22.6493 1.33407 24 2.96296 24H77.037C78.6659 24 80 22.6493 80 21V3C80 1.35075 78.6659 1.90735e-06 77.037 1.90735e-06Z" fill="#A6A6A6"/>
<path d="M17.8537 11.8704C17.8365 9.93662 19.4175 8.99582 19.4898 8.95202C18.5944 7.63022 17.2066 7.44962 16.7189 7.43522C15.5532 7.31102 14.4226 8.14142 13.8288 8.14142C13.2232 8.14142 12.3088 7.44722 11.3233 7.46762C10.0552 7.48742 8.8688 8.23082 8.21813 9.38522C6.87532 11.739 7.8768 15.198 9.16332 17.1006C9.80687 18.0324 10.5589 19.0728 11.5432 19.0362C12.5061 18.996 12.8658 18.4146 14.0279 18.4146C15.1793 18.4146 15.5171 19.0362 16.5209 19.0128C17.5544 18.996 18.2051 18.0768 18.8261 17.1366C19.5698 16.0686 19.8685 15.0168 19.8804 14.9628C19.8561 14.9544 17.8732 14.1882 17.8537 11.8704Z" fill="white"/>
<path d="M15.9574 6.18362C16.4753 5.52782 16.8297 4.63562 16.7313 3.73022C15.9817 3.76382 15.0442 4.25522 14.5044 4.89662C14.0267 5.46182 13.6001 6.38822 13.7103 7.25942C14.5524 7.32302 15.4169 6.82922 15.9574 6.18362Z" fill="white"/>
<path d="M29.0667 6.00534C29.0667 6.71154 28.8575 7.24314 28.4397 7.60014C28.0527 7.92954 27.5028 8.09454 26.7905 8.09454C26.4373 8.09454 26.1351 8.07894 25.8821 8.04774V4.18914C26.2122 4.13514 26.5677 4.10754 26.9517 4.10754C27.6302 4.10754 28.1416 4.25694 28.4865 4.55574C28.8729 4.89354 29.0667 5.37654 29.0667 6.00534ZM28.4119 6.02274C28.4119 5.56494 28.2922 5.21394 28.0527 4.96914C27.8133 4.72494 27.4637 4.60254 27.0033 4.60254C26.8077 4.60254 26.6412 4.61574 26.5031 4.64334V7.57674C26.5796 7.58874 26.7194 7.59414 26.9227 7.59414C27.3979 7.59414 27.7647 7.46034 28.0231 7.19274C28.2815 6.92514 28.4119 6.53514 28.4119 6.02274Z" fill="white"/>
<path d="M32.5387 6.62223C32.5387 7.05723 32.4161 7.41363 32.1707 7.69323C31.9136 7.98063 31.5728 8.12403 31.1473 8.12403C30.7373 8.12403 30.4107 7.98663 30.1672 7.71063C29.9242 7.43523 29.8027 7.08783 29.8027 6.66903C29.8027 6.23103 29.9278 5.87163 30.179 5.59263C30.4303 5.31363 30.7681 5.17383 31.1936 5.17383C31.6036 5.17383 31.9331 5.31123 32.1826 5.58663C32.4196 5.85423 32.5387 6.19983 32.5387 6.62223ZM31.8946 6.64263C31.8946 6.38163 31.8389 6.15783 31.7281 5.97123C31.5977 5.74563 31.4122 5.63283 31.171 5.63283C30.9216 5.63283 30.7319 5.74563 30.6015 5.97123C30.4901 6.15783 30.435 6.38523 30.435 6.65403C30.435 6.91503 30.4907 7.13883 30.6015 7.32543C30.7361 7.55103 30.9233 7.66383 31.1651 7.66383C31.4021 7.66383 31.5882 7.54923 31.7221 7.31943C31.8371 7.12923 31.8946 6.90363 31.8946 6.64263Z" fill="white"/>
<path d="M37.1941 5.23145L36.3201 8.05985H35.7512L35.3891 6.83165C35.2972 6.52505 35.2226 6.22025 35.1645 5.91785H35.1532C35.0993 6.22865 35.0247 6.53285 34.9287 6.83165L34.5441 8.05985H33.9687L33.1467 5.23145H33.7849L34.1008 6.57605C34.1772 6.89405 34.2401 7.19705 34.2904 7.48385H34.3017C34.3479 7.24745 34.4244 6.94625 34.5322 6.58205L34.9287 5.23205H35.4347L35.8146 6.55325C35.9064 6.87545 35.9811 7.18565 36.0386 7.48445H36.0558C36.0978 7.19345 36.1612 6.88325 36.2454 6.55325L36.5844 5.23205H37.1941V5.23145Z" fill="white"/>
<path d="M40.4137 8.0598H39.7926V6.4398C39.7926 5.9406 39.6054 5.691 39.2297 5.691C39.0454 5.691 38.8966 5.7594 38.7811 5.8968C38.6667 6.0342 38.6086 6.1962 38.6086 6.3816V8.0592H37.9876V6.0396C37.9876 5.7912 37.9799 5.5218 37.9651 5.2302H38.5109L38.5399 5.6724H38.5571C38.6294 5.535 38.7372 5.4216 38.8789 5.331C39.0472 5.2254 39.2356 5.172 39.4418 5.172C39.7026 5.172 39.9195 5.2572 40.0919 5.4282C40.3064 5.6376 40.4137 5.9502 40.4137 6.3654V8.0598Z" fill="white"/>
<path d="M42.1262 8.05979H41.5057V3.93359H42.1262V8.05979Z" fill="white"/>
<path d="M45.7825 6.62223C45.7825 7.05723 45.6598 7.41363 45.4145 7.69323C45.1573 7.98063 44.816 8.12403 44.3911 8.12403C43.9804 8.12403 43.6539 7.98663 43.411 7.71063C43.168 7.43523 43.0465 7.08783 43.0465 6.66903C43.0465 6.23103 43.1715 5.87163 43.4228 5.59263C43.6741 5.31363 44.0118 5.17383 44.4367 5.17383C44.8474 5.17383 45.1763 5.31123 45.4264 5.58663C45.6634 5.85423 45.7825 6.19983 45.7825 6.62223ZM45.1378 6.64263C45.1378 6.38163 45.0821 6.15783 44.9713 5.97123C44.8415 5.74563 44.6554 5.63283 44.4148 5.63283C44.1647 5.63283 43.9751 5.74563 43.8453 5.97123C43.7339 6.15783 43.6788 6.38523 43.6788 6.65403C43.6788 6.91503 43.7345 7.13883 43.8453 7.32543C43.9798 7.55103 44.1671 7.66383 44.4089 7.66383C44.6459 7.66383 44.8314 7.54923 44.9653 7.31943C45.0809 7.12923 45.1378 6.90363 45.1378 6.64263Z" fill="white"/>
<path d="M48.7882 8.05983H48.2306L48.1844 7.73403H48.1672C47.9764 7.99383 47.7044 8.12403 47.3512 8.12403C47.0875 8.12403 46.8741 8.03823 46.7135 7.86783C46.5678 7.71303 46.4949 7.52043 46.4949 7.29183C46.4949 6.94623 46.6371 6.68283 46.9233 6.50043C47.2089 6.31803 47.6107 6.22863 48.1281 6.23283V6.18003C48.1281 5.80743 47.9349 5.62143 47.5479 5.62143C47.2724 5.62143 47.0294 5.69163 46.8196 5.83083L46.6934 5.41803C46.9529 5.25543 47.2735 5.17383 47.6516 5.17383C48.3817 5.17383 48.7479 5.56383 48.7479 6.34383V7.38543C48.7479 7.66803 48.7615 7.89303 48.7882 8.05983ZM48.1435 7.08783V6.65163C47.4584 6.63963 47.1159 6.82983 47.1159 7.22163C47.1159 7.36923 47.155 7.47963 47.235 7.55343C47.315 7.62723 47.4169 7.66383 47.5384 7.66383C47.6747 7.66383 47.8021 7.62003 47.9183 7.53303C48.035 7.44543 48.1067 7.33443 48.1334 7.19823C48.1399 7.16763 48.1435 7.13043 48.1435 7.08783Z" fill="white"/>
<path d="M52.3171 8.05979H51.7659L51.7369 7.60559H51.7197C51.5437 7.95119 51.2439 8.12399 50.8225 8.12399C50.4859 8.12399 50.2056 7.99019 49.9834 7.72259C49.7612 7.45499 49.6504 7.10759 49.6504 6.68099C49.6504 6.22319 49.7707 5.85239 50.0125 5.56919C50.2465 5.30519 50.5333 5.17319 50.8747 5.17319C51.2498 5.17319 51.5123 5.30099 51.6616 5.55719H51.6735V3.93359H52.2951V7.29779C52.2951 7.57319 52.3022 7.82699 52.3171 8.05979ZM51.6735 6.86699V6.39539C51.6735 6.31379 51.6676 6.24779 51.6563 6.19739C51.6213 6.04619 51.5461 5.91899 51.4317 5.81639C51.3162 5.71379 51.1769 5.66219 51.0163 5.66219C50.7846 5.66219 50.6033 5.75519 50.4699 5.94179C50.3378 6.12839 50.2708 6.36659 50.2708 6.65759C50.2708 6.93719 50.3342 7.16399 50.4616 7.33859C50.5962 7.52459 50.7775 7.61759 51.0045 7.61759C51.2083 7.61759 51.3713 7.54019 51.4951 7.38479C51.6148 7.24139 51.6735 7.06859 51.6735 6.86699Z" fill="white"/>
<path d="M57.6285 6.62223C57.6285 7.05723 57.5058 7.41363 57.2605 7.69323C57.0033 7.98063 56.6631 8.12403 56.2371 8.12403C55.8276 8.12403 55.5011 7.98663 55.2569 7.71063C55.0139 7.43523 54.8925 7.08783 54.8925 6.66903C54.8925 6.23103 55.0175 5.87163 55.2688 5.59263C55.52 5.31363 55.8578 5.17383 56.2839 5.17383C56.6933 5.17383 57.0234 5.31123 57.2723 5.58663C57.5093 5.85423 57.6285 6.19983 57.6285 6.62223ZM56.9849 6.64263C56.9849 6.38163 56.9292 6.15783 56.8184 5.97123C56.6874 5.74563 56.5025 5.63283 56.2608 5.63283C56.0119 5.63283 55.8222 5.74563 55.6913 5.97123C55.5799 6.15783 55.5248 6.38523 55.5248 6.65403C55.5248 6.91503 55.5805 7.13883 55.6913 7.32543C55.8258 7.55103 56.013 7.66383 56.2548 7.66383C56.4919 7.66383 56.6785 7.54923 56.8125 7.31943C56.9268 7.12923 56.9849 6.90363 56.9849 6.64263Z" fill="white"/>
<path d="M60.9678 8.0598H60.3473V6.4398C60.3473 5.9406 60.1601 5.691 59.7838 5.691C59.5995 5.691 59.4507 5.7594 59.3358 5.8968C59.2208 6.0342 59.1633 6.1962 59.1633 6.3816V8.0592H58.5417V6.0396C58.5417 5.7912 58.5346 5.5218 58.5198 5.2302H59.065L59.094 5.6724H59.1112C59.1841 5.535 59.2919 5.4216 59.433 5.331C59.6018 5.2254 59.7897 5.172 59.9965 5.172C60.2567 5.172 60.4735 5.2572 60.646 5.4282C60.8611 5.6376 60.9678 5.9502 60.9678 6.3654V8.0598Z" fill="white"/>
<path d="M65.1473 5.70238H64.4634V7.07638C64.4634 7.42558 64.5849 7.60018 64.8255 7.60018C64.9369 7.60018 65.0293 7.59058 65.1022 7.57078L65.1182 8.04778C64.9955 8.09458 64.8344 8.11798 64.6358 8.11798C64.3905 8.11798 64.1997 8.04238 64.0616 7.89118C63.923 7.73998 63.8542 7.48558 63.8542 7.12858V5.70238H63.4459V5.23138H63.8542V4.71298L64.4628 4.52698V5.23078H65.1467V5.70238H65.1473Z" fill="white"/>
<path d="M68.435 8.05979H67.8134V6.45179C67.8134 5.94479 67.6261 5.69099 67.251 5.69099C66.963 5.69099 66.7662 5.83799 66.6584 6.13199C66.64 6.19379 66.6294 6.26939 66.6294 6.35819V8.05919H66.0089V3.93359H66.6294V5.63819H66.6412C66.8368 5.32799 67.1171 5.17319 67.4803 5.17319C67.7375 5.17319 67.9503 5.25839 68.1191 5.42939C68.3295 5.64239 68.435 5.95919 68.435 6.37799V8.05979Z" fill="white"/>
<path d="M71.8263 6.51173C71.8263 6.62453 71.818 6.71933 71.8032 6.79673H69.9407C69.949 7.07633 70.0379 7.28934 70.2103 7.43693C70.368 7.56893 70.5712 7.63493 70.8201 7.63493C71.0957 7.63493 71.3469 7.59053 71.5733 7.50113L71.6705 7.93793C71.4056 8.05433 71.0939 8.11253 70.733 8.11253C70.3004 8.11253 69.9597 7.98353 69.7131 7.72553C69.4654 7.46753 69.3428 7.12133 69.3428 6.68693C69.3428 6.26033 69.4571 5.90513 69.6877 5.62193C69.9283 5.31953 70.2536 5.16833 70.6643 5.16833C71.066 5.16833 71.3712 5.31953 71.5774 5.62193C71.744 5.86193 71.8263 6.15893 71.8263 6.51173ZM71.2337 6.34913C71.2385 6.16253 71.1976 6.00173 71.1134 5.86614C71.0056 5.69153 70.8414 5.60393 70.6192 5.60393C70.4166 5.60393 70.2512 5.68913 70.125 5.86013C70.0219 5.99633 69.9608 6.15893 69.9407 6.34913H71.2337Z" fill="white"/>
<path d="M31.7896 18.9023H30.4438L29.7067 16.5569H27.1443L26.4421 18.9023H25.1318L27.6705 10.9175H29.2385L31.7896 18.9023ZM29.4844 15.5729L28.8178 13.4879C28.7472 13.2749 28.6151 12.7733 28.4201 11.9837H28.3964C28.3188 12.3233 28.1938 12.8249 28.0219 13.4879L27.3671 15.5729H29.4844Z" fill="white"/>
<path d="M38.3182 15.9527C38.3182 16.9319 38.0569 17.7059 37.5342 18.2741C37.066 18.7799 36.4847 19.0325 35.7908 19.0325C35.0417 19.0325 34.5037 18.7601 34.176 18.2153H34.1523V21.2483H32.8889V15.0401C32.8889 14.4245 32.8729 13.7927 32.842 13.1447H33.9532L34.0237 14.0573H34.0474C34.4687 13.3697 35.1081 13.0265 35.9662 13.0265C36.637 13.0265 37.197 13.2947 37.645 13.8317C38.0942 14.3693 38.3182 15.0761 38.3182 15.9527ZM37.0311 15.9995C37.0311 15.4391 36.9066 14.9771 36.6566 14.6135C36.3834 14.2343 36.0166 14.0447 35.5567 14.0447C35.245 14.0447 34.9617 14.1503 34.7087 14.3585C34.4551 14.5685 34.2892 14.8427 34.2115 15.1823C34.1724 15.3407 34.1529 15.4703 34.1529 15.5723V16.5323C34.1529 16.9511 34.2797 17.3045 34.5333 17.5931C34.7869 17.8817 35.1164 18.0257 35.5217 18.0257C35.9976 18.0257 36.368 17.8397 36.6329 17.4689C36.8983 17.0975 37.0311 16.6079 37.0311 15.9995Z" fill="white"/>
<path d="M44.8586 15.9527C44.8586 16.9319 44.5973 17.7059 44.074 18.2741C43.6065 18.7799 43.0251 19.0325 42.3312 19.0325C41.5822 19.0325 41.0441 18.7601 40.717 18.2153H40.6933V21.2483H39.4299V15.0401C39.4299 14.4245 39.4139 13.7927 39.3831 13.1447H40.4942L40.5647 14.0573H40.5884C41.0091 13.3697 41.6485 13.0265 42.5072 13.0265C43.1774 13.0265 43.7374 13.2947 44.1866 13.8317C44.634 14.3693 44.8586 15.0761 44.8586 15.9527ZM43.5715 15.9995C43.5715 15.4391 43.4465 14.9771 43.1964 14.6135C42.9232 14.2343 42.5576 14.0447 42.0971 14.0447C41.7848 14.0447 41.5022 14.1503 41.2485 14.3585C40.9949 14.5685 40.8296 14.8427 40.7519 15.1823C40.7134 15.3407 40.6933 15.4703 40.6933 15.5723V16.5323C40.6933 16.9511 40.8201 17.3045 41.0725 17.5931C41.3262 17.8811 41.6557 18.0257 42.0622 18.0257C42.538 18.0257 42.9084 17.8397 43.1733 17.4689C43.4388 17.0975 43.5715 16.6079 43.5715 15.9995Z" fill="white"/>
<path d="M52.1713 16.6631C52.1713 17.3423 51.9384 17.8949 51.4708 18.3215C50.957 18.7877 50.2418 19.0205 49.3227 19.0205C48.4741 19.0205 47.7938 18.8549 47.2788 18.5231L47.5716 17.4569C48.1262 17.7965 48.7348 17.9669 49.3979 17.9669C49.8738 17.9669 50.2441 17.8577 50.5102 17.6405C50.7751 17.4233 50.9073 17.1317 50.9073 16.7681C50.9073 16.4441 50.7982 16.1711 50.5795 15.9497C50.3621 15.7283 49.9988 15.5225 49.4915 15.3323C48.1108 14.8109 47.421 14.0471 47.421 13.0427C47.421 12.3863 47.6628 11.8481 48.147 11.4293C48.6293 11.0099 49.2729 10.8005 50.0776 10.8005C50.7953 10.8005 51.3914 10.9271 51.8673 11.1797L51.5514 12.2225C51.107 11.9777 50.6044 11.8553 50.0421 11.8553C49.5976 11.8553 49.2504 11.9663 49.0015 12.1871C48.7911 12.3845 48.6856 12.6251 48.6856 12.9101C48.6856 13.2257 48.8059 13.4867 49.0477 13.6919C49.2581 13.8815 49.6403 14.0867 50.195 14.3081C50.8735 14.5847 51.3718 14.9081 51.6924 15.2789C52.0118 15.6485 52.1713 16.1111 52.1713 16.6631Z" fill="white"/>
<path d="M56.3485 14.1047H54.9559V16.9001C54.9559 17.6111 55.2012 17.9663 55.6931 17.9663C55.9189 17.9663 56.1061 17.9465 56.2543 17.9069L56.2892 18.8783C56.0403 18.9725 55.7126 19.0199 55.3067 19.0199C54.8077 19.0199 54.4178 18.8657 54.1363 18.5579C53.856 18.2495 53.715 17.7323 53.715 17.0057V14.1035H52.8854V13.1435H53.715V12.0893L54.9559 11.7101V13.1435H56.3485V14.1047Z" fill="white"/>
<path d="M62.6317 15.9761C62.6317 16.8611 62.3816 17.5877 61.8826 18.1559C61.3594 18.7409 60.6649 19.0325 59.7991 19.0325C58.9647 19.0325 58.3004 18.7523 57.805 18.1919C57.3096 17.6315 57.0619 16.9241 57.0619 16.0715C57.0619 15.1793 57.3167 14.4485 57.8281 13.8803C58.3383 13.3115 59.0269 13.0271 59.8927 13.0271C60.7271 13.0271 61.3985 13.3073 61.9051 13.8683C62.3899 14.4125 62.6317 15.1151 62.6317 15.9761ZM61.3208 16.0175C61.3208 15.4865 61.2089 15.0311 60.9819 14.6513C60.717 14.1917 60.3383 13.9625 59.8477 13.9625C59.3398 13.9625 58.954 14.1923 58.6892 14.6513C58.4622 15.0317 58.3502 15.4943 58.3502 16.0415C58.3502 16.5725 58.4622 17.0279 58.6892 17.4071C58.9623 17.8667 59.344 18.0959 59.8364 18.0959C60.3188 18.0959 60.6974 17.8619 60.9706 17.3951C61.2035 17.0081 61.3208 16.5479 61.3208 16.0175Z" fill="white"/>
<path d="M66.7383 14.2697C66.6133 14.2463 66.4799 14.2343 66.3401 14.2343C65.8956 14.2343 65.5519 14.4041 65.3101 14.7443C65.0998 15.0443 64.9943 15.4235 64.9943 15.8813V18.9023H63.7315L63.7433 14.9579C63.7433 14.2943 63.7273 13.6901 63.6959 13.1453H64.7964L64.8426 14.2469H64.8776C65.0109 13.8683 65.2213 13.5635 65.5093 13.3349C65.7907 13.1291 66.0947 13.0265 66.4224 13.0265C66.5392 13.0265 66.6447 13.0349 66.7383 13.0499V14.2697Z" fill="white"/>
<path d="M72.3887 15.7511C72.3887 15.9803 72.3739 16.1735 72.3425 16.3313H68.5523C68.5671 16.9001 68.7502 17.3351 69.1022 17.6351C69.4216 17.9033 69.8346 18.0377 70.3419 18.0377C70.9031 18.0377 71.4151 17.9471 71.8755 17.7653L72.0734 18.6533C71.5354 18.8909 70.9001 19.0091 70.1671 19.0091C69.2853 19.0091 68.5932 18.7463 68.0895 18.2213C67.5869 17.6963 67.3351 16.9913 67.3351 16.1069C67.3351 15.2387 67.5692 14.5157 68.0379 13.9391C68.5286 13.3235 69.1917 13.0157 70.026 13.0157C70.8456 13.0157 71.466 13.3235 71.8874 13.9391C72.221 14.4281 72.3887 15.0329 72.3887 15.7511ZM71.184 15.4193C71.1923 15.0401 71.1099 14.7125 70.9386 14.4359C70.72 14.0801 70.384 13.9025 69.9318 13.9025C69.5188 13.9025 69.1828 14.0759 68.9262 14.4239C68.7158 14.7005 68.5908 15.0323 68.5523 15.4187H71.184V15.4193Z" fill="white"/>
</svg>
