<svg width="24" height="24" viewBox="0 0 24 24" fill="none" xmlns="http://www.w3.org/2000/svg">
<circle cx="12" cy="12" r="12" fill="#D7F863"/>
<g clip-path="url(#clip0_1333_1306)">
<path d="M12 5.33337C9.41998 5.33337 7.33331 7.42004 7.33331 10C7.33331 13.5 12 18.6667 12 18.6667C12 18.6667 16.6666 13.5 16.6666 10C16.6666 7.42004 14.58 5.33337 12 5.33337ZM12 11.6667C11.08 11.6667 10.3333 10.92 10.3333 10C10.3333 9.08004 11.08 8.33337 12 8.33337C12.92 8.33337 13.6666 9.08004 13.6666 10C13.6666 10.92 12.92 11.6667 12 11.6667Z" fill="black"/>
</g>
<defs>
<clipPath id="clip0_1333_1306">
<rect width="16" height="16" fill="white" transform="translate(4 4)"/>
</clipPath>
</defs>
</svg>
