<svg width="80" height="24" viewBox="0 0 80 24" fill="none" xmlns="http://www.w3.org/2000/svg">
<path d="M77.037 24H2.96296C1.33407 24 0 22.6492 0 21V3C0 1.35075 1.33407 -9.53674e-07 2.96296 -9.53674e-07H77.037C78.6659 -9.53674e-07 80 1.35075 80 3V21C80 22.6492 78.6659 24 77.037 24Z" fill="black"/>
<path d="M77.037 0.480749C78.4089 0.480749 79.5252 1.611 79.5252 3V21C79.5252 22.389 78.4089 23.5193 77.037 23.5193H2.96296C1.59111 23.5193 0.474815 22.389 0.474815 21V3C0.474815 1.611 1.59111 0.480749 2.96296 0.480749H77.037ZM77.037 -9.53674e-07H2.96296C1.33407 -9.53674e-07 0 1.35075 0 3V21C0 22.6492 1.33407 24 2.96296 24H77.037C78.6659 24 80 22.6492 80 21V3C80 1.35075 78.6659 -9.53674e-07 77.037 -9.53674e-07Z" fill="#A6A6A6"/>
<path d="M6.18375 4.52326C6.00968 4.70776 5.90894 4.99501 5.90894 5.36701V18.636C5.90894 19.008 6.00968 19.2953 6.18375 19.4798L6.22671 19.5203L13.5704 12.0878V11.9123L6.22671 4.47976L6.18375 4.52326Z" fill="url(#paint0_linear_1333_1346)"/>
<path d="M16.0156 14.5665L13.5704 12.0878V11.9123L16.0186 9.43353L16.0734 9.46578L18.9727 11.136C19.8001 11.61 19.8001 12.39 18.9727 12.867L16.0734 14.5343L16.0156 14.5665Z" fill="url(#paint1_linear_1333_1346)"/>
<path d="M16.0733 14.5342L13.5704 12L6.18372 19.4797C6.45853 19.7722 6.90668 19.8075 7.41631 19.515L16.0733 14.5342Z" fill="url(#paint2_linear_1333_1346)"/>
<path d="M16.0733 9.46575L7.41631 4.485C6.90668 4.1955 6.45853 4.23075 6.18372 4.52325L13.5704 12L16.0733 9.46575Z" fill="url(#paint3_linear_1333_1346)"/>
<path d="M28.0992 6.14627C28.0992 6.64727 27.9511 7.04852 27.6592 7.34777C27.3236 7.70252 26.8866 7.88102 26.3511 7.88102C25.8392 7.88102 25.4022 7.69952 25.0436 7.34177C24.6844 6.97877 24.5051 6.53327 24.5051 6.00002C24.5051 5.46677 24.6844 5.02127 25.0436 4.66127C25.4022 4.30052 25.8392 4.11902 26.3511 4.11902C26.6059 4.11902 26.8488 4.17227 27.0807 4.27127C27.3118 4.37102 27.4999 4.50602 27.6362 4.67252L27.3266 4.98902C27.0888 4.70477 26.7651 4.56452 26.3511 4.56452C25.9777 4.56452 25.654 4.69652 25.3792 4.96277C25.1073 5.22977 24.9711 5.57552 24.9711 6.00002C24.9711 6.42452 25.1073 6.77327 25.3792 7.04027C25.654 7.30352 25.9777 7.43852 26.3511 7.43852C26.7473 7.43852 27.0807 7.30352 27.3436 7.03727C27.517 6.86102 27.6155 6.61802 27.6414 6.30752H26.3511V5.87402H28.0725C28.0933 5.96777 28.0992 6.05852 28.0992 6.14627Z" fill="white" stroke="white" stroke-width="0.16" stroke-miterlimit="10"/>
<path d="M30.8303 4.64329H29.2133V5.78329H30.671V6.21679H29.2133V7.35679H30.8303V7.79854H28.7555V4.20154H30.8303V4.64329Z" fill="white" stroke="white" stroke-width="0.16" stroke-miterlimit="10"/>
<path d="M32.7577 7.79854H32.3V4.64329H31.3081V4.20154H33.7503V4.64329H32.7577V7.79854Z" fill="white" stroke="white" stroke-width="0.16" stroke-miterlimit="10"/>
<path d="M35.5177 7.79854V4.20154H35.9747V7.79854H35.5177Z" fill="white" stroke="white" stroke-width="0.16" stroke-miterlimit="10"/>
<path d="M38.0006 7.79854H37.5466V4.64329H36.551V4.20154H38.9962V4.64329H38.0006V7.79854Z" fill="white" stroke="white" stroke-width="0.16" stroke-miterlimit="10"/>
<path d="M43.6199 7.33577C43.2695 7.69952 42.8354 7.88102 42.3177 7.88102C41.7969 7.88102 41.3628 7.69952 41.0125 7.33577C40.6628 6.97277 40.4888 6.52727 40.4888 6.00002C40.4888 5.47277 40.6628 5.02727 41.0125 4.66427C41.3628 4.30052 41.7969 4.11902 42.3177 4.11902C42.8325 4.11902 43.2666 4.30052 43.6169 4.66727C43.9695 5.03327 44.1436 5.47577 44.1436 6.00002C44.1436 6.52727 43.9695 6.97277 43.6199 7.33577ZM41.351 7.03427C41.6147 7.30352 41.9354 7.43852 42.3177 7.43852C42.6969 7.43852 43.0206 7.30352 43.2814 7.03427C43.5443 6.76502 43.6777 6.41927 43.6777 6.00002C43.6777 5.58077 43.5443 5.23502 43.2814 4.96577C43.0206 4.69652 42.6969 4.56152 42.3177 4.56152C41.9354 4.56152 41.6147 4.69652 41.351 4.96577C41.088 5.23502 40.9547 5.58077 40.9547 6.00002C40.9547 6.41927 41.088 6.76502 41.351 7.03427Z" fill="white" stroke="white" stroke-width="0.16" stroke-miterlimit="10"/>
<path d="M44.7859 7.79854V4.20154H45.3414L47.0689 6.99904H47.0889L47.0689 6.30754V4.20154H47.5259V7.79854H47.0489L45.24 4.86304H45.22L45.24 5.55754V7.79854H44.7859Z" fill="white" stroke="white" stroke-width="0.16" stroke-miterlimit="10"/>
<path d="M40.3762 13.0515C38.9844 13.0515 37.8473 14.124 37.8473 15.6038C37.8473 17.0715 38.9844 18.1553 40.3762 18.1553C41.771 18.1553 42.9081 17.0715 42.9081 15.6038C42.9081 14.124 41.771 13.0515 40.3762 13.0515ZM40.3762 17.1503C39.6125 17.1503 38.9555 16.512 38.9555 15.6038C38.9555 14.6835 39.6125 14.0565 40.3762 14.0565C41.1399 14.0565 41.7999 14.6835 41.7999 15.6038C41.7999 16.512 41.1399 17.1503 40.3762 17.1503ZM34.8585 13.0515C33.4636 13.0515 32.3296 14.124 32.3296 15.6038C32.3296 17.0715 33.4636 18.1553 34.8585 18.1553C36.2525 18.1553 37.3873 17.0715 37.3873 15.6038C37.3873 14.124 36.2525 13.0515 34.8585 13.0515ZM34.8585 17.1503C34.094 17.1503 33.4348 16.512 33.4348 15.6038C33.4348 14.6835 34.094 14.0565 34.8585 14.0565C35.6222 14.0565 36.2792 14.6835 36.2792 15.6038C36.2792 16.512 35.6222 17.1503 34.8585 17.1503ZM28.2925 13.8338V14.9183H30.8503C30.7755 15.5243 30.5755 15.9698 30.2688 16.2803C29.8955 16.6553 29.314 17.0715 28.2925 17.0715C26.7185 17.0715 25.4859 15.7853 25.4859 14.1915C25.4859 12.5978 26.7185 11.3115 28.2925 11.3115C29.1436 11.3115 29.7629 11.6483 30.2199 12.0848L30.9748 11.3205C30.3355 10.7025 29.4851 10.2278 28.2925 10.2278C26.134 10.2278 24.3199 12.006 24.3199 14.1915C24.3199 16.377 26.134 18.1553 28.2925 18.1553C29.4592 18.1553 30.3355 17.7683 31.0244 17.0423C31.7303 16.3275 31.9503 15.3225 31.9503 14.511C31.9503 14.259 31.9296 14.0273 31.8925 13.8338H28.2925ZM55.1414 14.6745C54.9333 14.1038 54.291 13.0515 52.9829 13.0515C51.6866 13.0515 50.6073 14.0858 50.6073 15.6038C50.6073 17.0333 51.6755 18.1553 53.1073 18.1553C54.2651 18.1553 54.9333 17.4405 55.2081 17.0243L54.3488 16.4445C54.0622 16.869 53.6718 17.1503 53.1073 17.1503C52.5466 17.1503 52.1444 16.89 51.8866 16.377L55.2577 14.9648L55.1414 14.6745ZM51.7044 15.5243C51.6755 14.5403 52.4592 14.0363 53.0207 14.0363C53.4607 14.0363 53.834 14.259 53.9585 14.5778L51.7044 15.5243ZM48.9644 18H50.0725V10.5H48.9644V18ZM47.1496 13.62H47.1125C46.8636 13.3215 46.3888 13.0515 45.7873 13.0515C44.5251 13.0515 43.3711 14.1735 43.3711 15.612C43.3711 17.0423 44.5251 18.1553 45.7873 18.1553C46.3888 18.1553 46.8636 17.883 47.1125 17.5755H47.1496V17.9415C47.1496 18.9173 46.6347 19.4415 45.8044 19.4415C45.1273 19.4415 44.7073 18.9465 44.534 18.5303L43.5703 18.9375C43.8481 19.614 44.5836 20.4465 45.8044 20.4465C47.1036 20.4465 48.1999 19.6725 48.1999 17.7893V13.2068H47.1496V13.62ZM45.8822 17.1503C45.1185 17.1503 44.4792 16.503 44.4792 15.612C44.4792 14.7128 45.1185 14.0565 45.8822 14.0565C46.6348 14.0565 47.2281 14.7128 47.2281 15.612C47.2281 16.503 46.6348 17.1503 45.8822 17.1503ZM60.3296 10.5H57.6792V18H58.7844V15.1583H60.3296C61.557 15.1583 62.7607 14.259 62.7607 12.8288C62.7607 11.3993 61.554 10.5 60.3296 10.5ZM60.3584 14.115H58.7844V11.5433H60.3584C61.1836 11.5433 61.6547 12.237 61.6547 12.8288C61.6547 13.4093 61.1836 14.115 60.3584 14.115ZM67.1903 13.0373C66.3918 13.0373 65.5614 13.3943 65.2199 14.1855L66.2007 14.6018C66.4118 14.1855 66.7999 14.0505 67.2103 14.0505C67.7836 14.0505 68.3651 14.3993 68.374 15.015V15.0938C68.174 14.9768 67.7459 14.8035 67.2192 14.8035C66.1629 14.8035 65.0866 15.3923 65.0866 16.491C65.0866 17.496 65.9518 18.1433 66.9244 18.1433C67.6681 18.1433 68.0784 17.8035 68.3362 17.4083H68.374V17.988H69.4414V15.111C69.4414 13.7813 68.4607 13.0373 67.1903 13.0373ZM67.057 17.1473C66.6955 17.1473 66.1918 16.9658 66.1918 16.512C66.1918 15.9315 66.8199 15.7088 67.3636 15.7088C67.8503 15.7088 68.0784 15.8175 68.374 15.9608C68.2873 16.6553 67.697 17.1473 67.057 17.1473ZM73.3303 13.2015L72.0599 16.4528H72.0222L70.7088 13.2015H69.517L71.4903 17.745L70.3644 20.2733H71.5192L74.5599 13.2015H73.3303ZM63.3681 18H64.4762V10.5H63.3681V18Z" fill="white"/>
<defs>
<linearGradient id="paint0_linear_1333_1346" x1="12.9184" y1="18.7742" x2="2.84972" y2="8.82984" gradientUnits="userSpaceOnUse">
<stop stop-color="#00A0FF"/>
<stop offset="0.0066" stop-color="#00A1FF"/>
<stop offset="0.2601" stop-color="#00BEFF"/>
<stop offset="0.5122" stop-color="#00D2FF"/>
<stop offset="0.7604" stop-color="#00DFFF"/>
<stop offset="1" stop-color="#00E3FF"/>
</linearGradient>
<linearGradient id="paint1_linear_1333_1346" x1="20.0501" y1="11.9992" x2="5.71118" y2="11.9992" gradientUnits="userSpaceOnUse">
<stop stop-color="#FFE000"/>
<stop offset="0.4087" stop-color="#FFBD00"/>
<stop offset="0.7754" stop-color="#FFA500"/>
<stop offset="1" stop-color="#FF9C00"/>
</linearGradient>
<linearGradient id="paint2_linear_1333_1346" x1="14.7123" y1="10.6223" x2="1.05838" y2="-2.86303" gradientUnits="userSpaceOnUse">
<stop stop-color="#FF3A44"/>
<stop offset="1" stop-color="#C31162"/>
</linearGradient>
<linearGradient id="paint3_linear_1333_1346" x1="4.32434" y1="23.8943" x2="10.4214" y2="17.8725" gradientUnits="userSpaceOnUse">
<stop stop-color="#32A071"/>
<stop offset="0.0685" stop-color="#2DA771"/>
<stop offset="0.4762" stop-color="#15CF74"/>
<stop offset="0.8009" stop-color="#06E775"/>
<stop offset="1" stop-color="#00F076"/>
</linearGradient>
</defs>
</svg>
