<svg width="47" height="46" viewBox="0 0 47 46" fill="none" xmlns="http://www.w3.org/2000/svg">
<path fill-rule="evenodd" clip-rule="evenodd" d="M18.9067 44.7583C22.5621 45.8311 26.2465 46.2561 29.4195 45.8461C40.1242 44.4628 45.9768 30.5826 46.5 19.6948L18.9067 44.7583ZM6.86298 38.4261C7.62763 39.0736 8.44071 39.6876 9.29422 40.265L44.505 8.2813C44.0611 7.27519 43.5699 6.37304 43.036 5.56829L6.86298 38.4261ZM22.5438 2.30334C12.5683 6.41499 -0.719821 19.1052 0.589807 28.3733C0.689726 29.0796 0.857529 29.772 1.08063 30.453L34.4719 0.122937C33.8358 0.0401278 33.1844 0.000364799 32.5205 0C29.4119 0 26.0173 0.871869 22.5438 2.30334ZM12.3379 42.0887C13.2925 42.5936 14.2742 43.055 15.273 43.4709L46.3909 15.2059C46.283 14.1929 46.1217 13.2316 45.8955 12.3506C45.8429 12.1467 45.7853 11.9548 45.7304 11.7567L12.3379 42.0887ZM2.6126 33.6498C3.13622 34.4812 3.7426 35.2841 4.42373 36.0534L40.8305 2.98369C40.0365 2.27124 39.1857 1.69413 38.283 1.24907L2.6126 33.6498Z" fill="#ACF709"/>
<path fill-rule="evenodd" clip-rule="evenodd" d="M18.9067 44.7583C22.5621 45.8311 26.2465 46.2561 29.4195 45.8461C40.1242 44.4628 45.9768 30.5826 46.5 19.6948L18.9067 44.7583ZM6.86298 38.4261C7.62763 39.0736 8.44071 39.6876 9.29422 40.265L44.505 8.2813C44.0611 7.27519 43.5699 6.37304 43.036 5.56829L6.86298 38.4261ZM22.5438 2.30334C12.5683 6.41499 -0.719821 19.1052 0.589807 28.3733C0.689726 29.0796 0.857529 29.772 1.08063 30.453L34.4719 0.122937C33.8358 0.0401278 33.1844 0.000364799 32.5205 0C29.4119 0 26.0173 0.871869 22.5438 2.30334ZM12.3379 42.0887C13.2925 42.5936 14.2742 43.055 15.273 43.4709L46.3909 15.2059C46.283 14.1929 46.1217 13.2316 45.8955 12.3506C45.8429 12.1467 45.7853 11.9548 45.7304 11.7567L12.3379 42.0887ZM2.6126 33.6498C3.13622 34.4812 3.7426 35.2841 4.42373 36.0534L40.8305 2.98369C40.0365 2.27124 39.1857 1.69413 38.283 1.24907L2.6126 33.6498Z" fill="url(#paint0_radial_1333_1402)"/>
<path fill-rule="evenodd" clip-rule="evenodd" d="M18.9067 44.7583C22.5621 45.8311 26.2465 46.2561 29.4195 45.8461C40.1242 44.4628 45.9768 30.5826 46.5 19.6948L18.9067 44.7583ZM6.86298 38.4261C7.62763 39.0736 8.44071 39.6876 9.29422 40.265L44.505 8.2813C44.0611 7.27519 43.5699 6.37304 43.036 5.56829L6.86298 38.4261ZM22.5438 2.30334C12.5683 6.41499 -0.719821 19.1052 0.589807 28.3733C0.689726 29.0796 0.857529 29.772 1.08063 30.453L34.4719 0.122937C33.8358 0.0401278 33.1844 0.000364799 32.5205 0C29.4119 0 26.0173 0.871869 22.5438 2.30334ZM12.3379 42.0887C13.2925 42.5936 14.2742 43.055 15.273 43.4709L46.3909 15.2059C46.283 14.1929 46.1217 13.2316 45.8955 12.3506C45.8429 12.1467 45.7853 11.9548 45.7304 11.7567L12.3379 42.0887ZM2.6126 33.6498C3.13622 34.4812 3.7426 35.2841 4.42373 36.0534L40.8305 2.98369C40.0365 2.27124 39.1857 1.69413 38.283 1.24907L2.6126 33.6498Z" fill="url(#paint1_linear_1333_1402)" style="mix-blend-mode:difference"/>
<path fill-rule="evenodd" clip-rule="evenodd" d="M18.9067 44.7583C22.5621 45.8311 26.2465 46.2561 29.4195 45.8461C40.1242 44.4628 45.9768 30.5826 46.5 19.6948L18.9067 44.7583ZM6.86298 38.4261C7.62763 39.0736 8.44071 39.6876 9.29422 40.265L44.505 8.2813C44.0611 7.27519 43.5699 6.37304 43.036 5.56829L6.86298 38.4261ZM22.5438 2.30334C12.5683 6.41499 -0.719821 19.1052 0.589807 28.3733C0.689726 29.0796 0.857529 29.772 1.08063 30.453L34.4719 0.122937C33.8358 0.0401278 33.1844 0.000364799 32.5205 0C29.4119 0 26.0173 0.871869 22.5438 2.30334ZM12.3379 42.0887C13.2925 42.5936 14.2742 43.055 15.273 43.4709L46.3909 15.2059C46.283 14.1929 46.1217 13.2316 45.8955 12.3506C45.8429 12.1467 45.7853 11.9548 45.7304 11.7567L12.3379 42.0887ZM2.6126 33.6498C3.13622 34.4812 3.7426 35.2841 4.42373 36.0534L40.8305 2.98369C40.0365 2.27124 39.1857 1.69413 38.283 1.24907L2.6126 33.6498Z" fill="url(#paint2_linear_1333_1402)" style="mix-blend-mode:screen"/>
<path fill-rule="evenodd" clip-rule="evenodd" d="M18.9067 44.7583C22.5621 45.8311 26.2465 46.2561 29.4195 45.8461C40.1242 44.4628 45.9768 30.5826 46.5 19.6948L18.9067 44.7583ZM6.86298 38.4261C7.62763 39.0736 8.44071 39.6876 9.29422 40.265L44.505 8.2813C44.0611 7.27519 43.5699 6.37304 43.036 5.56829L6.86298 38.4261ZM22.5438 2.30334C12.5683 6.41499 -0.719821 19.1052 0.589807 28.3733C0.689726 29.0796 0.857529 29.772 1.08063 30.453L34.4719 0.122937C33.8358 0.0401278 33.1844 0.000364799 32.5205 0C29.4119 0 26.0173 0.871869 22.5438 2.30334ZM12.3379 42.0887C13.2925 42.5936 14.2742 43.055 15.273 43.4709L46.3909 15.2059C46.283 14.1929 46.1217 13.2316 45.8955 12.3506C45.8429 12.1467 45.7853 11.9548 45.7304 11.7567L12.3379 42.0887ZM2.6126 33.6498C3.13622 34.4812 3.7426 35.2841 4.42373 36.0534L40.8305 2.98369C40.0365 2.27124 39.1857 1.69413 38.283 1.24907L2.6126 33.6498Z" fill="#ACF709"/>
<defs>
<radialGradient id="paint0_radial_1333_1402" cx="0" cy="0" r="1" gradientUnits="userSpaceOnUse" gradientTransform="translate(46.5) rotate(135) scale(65.0538)">
<stop stop-color="#78FFF1"/>
<stop offset="0.2" stop-color="#D0DEFF"/>
<stop offset="0.4" stop-color="#DF97DF"/>
<stop offset="0.6" stop-color="#97EBBE"/>
<stop offset="0.8" stop-color="#F1FCAF"/>
<stop offset="1" stop-color="#C2E3F1"/>
</radialGradient>
<linearGradient id="paint1_linear_1333_1402" x1="0.5" y1="0" x2="57.2171" y2="21.6082" gradientUnits="userSpaceOnUse">
<stop stop-color="white"/>
<stop offset="0.25"/>
<stop offset="0.5" stop-color="white"/>
<stop offset="0.75"/>
<stop offset="1" stop-color="white"/>
</linearGradient>
<linearGradient id="paint2_linear_1333_1402" x1="0.5" y1="0" x2="57.2171" y2="21.6082" gradientUnits="userSpaceOnUse">
<stop stop-color="white"/>
<stop offset="0.234375"/>
<stop offset="0.489583" stop-color="white"/>
<stop offset="0.734375"/>
<stop offset="1" stop-color="white"/>
</linearGradient>
</defs>
</svg>
