<svg width="176" height="52" viewBox="0 0 176 52" fill="none" xmlns="http://www.w3.org/2000/svg">
<path d="M175.5 46.7875C175.5 49.4047 173.445 51.5001 170.932 51.5001H5.07501C2.56242 51.5001 0.500244 49.4038 0.500244 46.7875V5.21939C0.500244 2.60359 2.56335 0.500061 5.07501 0.500061H170.931C173.444 0.500061 175.499 2.60256 175.499 5.21939L175.5 46.7875Z" fill="black" stroke="#A6A6A6"/>
<path d="M63.8655 18.1407C66.1213 18.1407 67.4514 16.7872 67.4514 14.502V13.6993H64.012V14.6251H66.3967V14.7774C66.3967 16.1954 65.3655 17.168 63.8655 17.168C62.1428 17.168 61.0706 15.8555 61.0706 13.7286V13.7227C61.0706 11.6368 62.1252 10.377 63.8655 10.377C65.0549 10.377 65.8752 10.9922 66.2678 12.0645L66.2913 12.129H67.3987L67.3694 12.0176C66.9768 10.5235 65.8108 9.40436 63.8655 9.40436C61.5042 9.40436 59.9924 11.0801 59.9924 13.7227V13.7286C59.9924 16.4239 61.5042 18.1407 63.8655 18.1407ZM71.1721 18.1172C72.8538 18.1172 73.9905 16.8985 73.9905 14.9532V14.9415C73.9905 12.9962 72.8479 11.7891 71.1663 11.7891C69.4846 11.7891 68.3479 13.002 68.3479 14.9415V14.9532C68.3479 16.8926 69.4788 18.1172 71.1721 18.1172ZM71.178 17.2149C70.0999 17.2149 69.3909 16.3887 69.3909 14.9532V14.9415C69.3909 13.5176 70.1057 12.6915 71.1663 12.6915C72.2444 12.6915 72.9475 13.5118 72.9475 14.9415V14.9532C72.9475 16.3829 72.2502 17.2149 71.178 17.2149ZM79.4631 18.1172C79.6624 18.1172 79.8792 18.0938 80.0081 18.0762V17.2501C79.9202 17.2559 79.803 17.2735 79.6799 17.2735C79.135 17.2735 78.8479 17.0919 78.8479 16.4415V12.7501H80.0081V11.9063H78.8479V10.2598H77.7932V11.9063H76.9026V12.7501H77.7932V16.4473C77.7932 17.6133 78.344 18.1172 79.4631 18.1172ZM83.4534 18.1172C85.135 18.1172 86.2717 16.8985 86.2717 14.9532V14.9415C86.2717 12.9962 85.1292 11.7891 83.4475 11.7891C81.7659 11.7891 80.6292 13.002 80.6292 14.9415V14.9532C80.6292 16.8926 81.76 18.1172 83.4534 18.1172ZM83.4592 17.2149C82.3811 17.2149 81.6721 16.3887 81.6721 14.9532V14.9415C81.6721 13.5176 82.387 12.6915 83.4475 12.6915C84.5256 12.6915 85.2288 13.5118 85.2288 14.9415V14.9532C85.2288 16.3829 84.5315 17.2149 83.4592 17.2149ZM91.7444 18.1172C91.9436 18.1172 92.1604 18.0938 92.2893 18.0762V17.2501C92.2014 17.2559 92.0842 17.2735 91.9612 17.2735C91.4163 17.2735 91.1292 17.0919 91.1292 16.4415V12.7501H92.2893V11.9063H91.1292V10.2598H90.0745V11.9063H89.1838V12.7501H90.0745V16.4473C90.0745 17.6133 90.6252 18.1172 91.7444 18.1172ZM93.4377 18.0001H94.4573V14.4434C94.4573 13.4063 95.0842 12.6915 96.0276 12.6915C96.9768 12.6915 97.5393 13.3419 97.5393 14.4434V18.0001H98.5588V14.2676C98.5588 12.7911 97.6741 11.7891 96.3792 11.7891C95.4709 11.7891 94.8088 12.1934 94.4807 12.879H94.4573V9.54498H93.4377V18.0001ZM102.362 18.1172C103.692 18.1172 104.688 17.3204 104.887 16.3126L104.899 16.254H103.897L103.879 16.3067C103.703 16.8282 103.158 17.2149 102.385 17.2149C101.301 17.2149 100.61 16.4825 100.586 15.2286H104.975V14.8536C104.975 13.0255 103.961 11.7891 102.297 11.7891C100.633 11.7891 99.5549 13.084 99.5549 14.9708V14.9766C99.5549 16.8926 100.61 18.1172 102.362 18.1172ZM102.291 12.6915C103.182 12.6915 103.838 13.2481 103.938 14.4317H100.604C100.715 13.295 101.406 12.6915 102.291 12.6915Z" fill="white"/>
<path d="M64.4807 41.0001H67.9377L71.0549 29.668H71.1252L74.2307 41.0001H77.6877L82.176 24.0899H78.5081L75.8245 36.2071H75.7542L72.637 24.0899H69.5315L66.4143 36.2071H66.344L63.6721 24.0899H60.0042L64.4807 41.0001ZM88.1057 41.2579C91.6917 41.2579 93.426 39.1368 93.8127 37.2852L93.8479 37.1563H90.7073L90.6838 37.2266C90.4377 37.9297 89.5823 38.7032 88.176 38.7032C86.4299 38.7032 85.3401 37.5313 85.3049 35.5274H93.9534V34.4727C93.9534 30.6758 91.6448 28.1797 87.9651 28.1797C84.2854 28.1797 81.9299 30.7344 81.9299 34.7305V34.7422C81.9299 38.7618 84.262 41.2579 88.1057 41.2579ZM88.0237 30.7344C89.4417 30.7344 90.4612 31.6368 90.6721 33.3712H85.3401C85.5627 31.6719 86.6174 30.7344 88.0237 30.7344ZM103.164 41.2579C106.328 41.2579 108.285 38.7969 108.285 34.7188V34.7071C108.285 30.6172 106.328 28.1797 103.176 28.1797C101.383 28.1797 99.9885 29.0938 99.2971 30.6172H99.2268V24.0899H95.8049V41.0001H99.2268V38.8555H99.2971C99.9768 40.3438 101.36 41.2579 103.164 41.2579ZM102.028 38.4219C100.364 38.4219 99.2268 36.9922 99.2268 34.7188V34.7071C99.2268 32.4454 100.375 31.0157 102.028 31.0157C103.727 31.0157 104.805 32.4102 104.805 34.7071V34.7188C104.805 37.004 103.727 38.4219 102.028 38.4219ZM114.016 41.0001H117.731L119.008 36.8985H124.985L126.262 41.0001H129.977L124.082 24.0899H119.922L114.016 41.0001ZM121.961 27.3712H122.031L124.164 34.2501H119.828L121.961 27.3712ZM131.418 45.1016H134.84V38.8555H134.91C135.59 40.3438 137.008 41.2579 138.801 41.2579C141.942 41.2579 143.887 38.7969 143.887 34.7188V34.7071C143.887 30.6172 141.942 28.1797 138.754 28.1797C136.973 28.1797 135.602 29.1055 134.922 30.629H134.84V28.4376H131.418V45.1016ZM137.629 38.4219C135.965 38.4219 134.828 36.9922 134.828 34.7305V34.7188C134.828 32.4454 135.965 31.0157 137.629 31.0157C139.328 31.0157 140.406 32.4102 140.406 34.7071V34.7188C140.406 37.004 139.328 38.4219 137.629 38.4219ZM145.668 45.1016H149.09V38.8555H149.16C149.84 40.3438 151.258 41.2579 153.051 41.2579C156.192 41.2579 158.137 38.7969 158.137 34.7188V34.7071C158.137 30.6172 156.192 28.1797 153.004 28.1797C151.223 28.1797 149.852 29.1055 149.172 30.629H149.09V28.4376H145.668V45.1016ZM151.879 38.4219C150.215 38.4219 149.078 36.9922 149.078 34.7305V34.7188C149.078 32.4454 150.215 31.0157 151.879 31.0157C153.578 31.0157 154.656 32.4102 154.656 34.7071V34.7188C154.656 37.004 153.578 38.4219 151.879 38.4219Z" fill="white"/>
<g clip-path="url(#clip0_2_1417)">
<path d="M35 10.0833C26.49 10.0833 19.5833 16.99 19.5833 25.5C19.5833 34.01 26.49 40.9167 35 40.9167C43.51 40.9167 50.4167 34.01 50.4167 25.5C50.4167 16.99 43.51 10.0833 35 10.0833ZM33.4583 37.7254C27.3688 36.97 22.6667 31.79 22.6667 25.5C22.6667 24.5442 22.79 23.6346 22.9904 22.7404L30.375 30.125V31.6667C30.375 33.3625 31.7625 34.75 33.4583 34.75V37.7254ZM44.0958 33.8096C43.695 32.5608 42.5542 31.6667 41.1667 31.6667H39.625V27.0417C39.625 26.1938 38.9313 25.5 38.0833 25.5H28.8333V22.4167H31.9167C32.7646 22.4167 33.4583 21.7229 33.4583 20.875V17.7917H36.5417C38.2375 17.7917 39.625 16.4042 39.625 14.7083V14.0763C44.1421 15.9108 47.3333 20.3354 47.3333 25.5C47.3333 28.7067 46.1 31.6204 44.0958 33.8096Z" fill="white"/>
</g>
<defs>
<clipPath id="clip0_2_1417">
<rect width="37" height="37" fill="white" transform="translate(16.5 7)"/>
</clipPath>
</defs>
</svg>
