<svg width="61" height="63" viewBox="0 0 61 63" fill="none" xmlns="http://www.w3.org/2000/svg">
<path fill-rule="evenodd" clip-rule="evenodd" d="M24.5087 61.2994C29.2767 62.7687 34.0824 63.3508 38.2211 62.7892C52.1838 60.8947 59.8175 41.8848 60.5 26.9733L24.5087 61.2994ZM8.79953 52.627C9.7969 53.5139 10.8574 54.3547 11.9707 55.1456L57.8979 11.3418C57.3189 9.96384 56.6782 8.72829 55.9817 7.62614L8.79953 52.627ZM29.2528 3.15457C16.2412 8.78574 -1.09107 26.1659 0.617139 38.8591C0.747468 39.8264 0.966342 40.7746 1.25734 41.7074L44.8112 0.16837C43.9815 0.0549577 43.1319 0.000499616 42.2658 0C38.2112 0 33.7835 1.19408 29.2528 3.15457ZM15.9408 57.6432C17.1859 58.3346 18.4663 58.9667 19.7691 59.5362L60.3577 20.8255C60.2169 19.4381 60.0065 18.1216 59.7116 16.915C59.6429 16.6357 59.5678 16.3729 59.4962 16.1016L15.9408 57.6432ZM3.25556 46.0856C3.93855 47.2242 4.72948 48.3238 5.61791 49.3775L53.1051 4.08636C52.0694 3.11061 50.9596 2.32022 49.7821 1.71068L3.25556 46.0856Z" fill="white"/>
<path fill-rule="evenodd" clip-rule="evenodd" d="M24.5087 61.2994C29.2767 62.7687 34.0824 63.3508 38.2211 62.7892C52.1838 60.8947 59.8175 41.8848 60.5 26.9733L24.5087 61.2994ZM8.79953 52.627C9.7969 53.5139 10.8574 54.3547 11.9707 55.1456L57.8979 11.3418C57.3189 9.96384 56.6782 8.72829 55.9817 7.62614L8.79953 52.627ZM29.2528 3.15457C16.2412 8.78574 -1.09107 26.1659 0.617139 38.8591C0.747468 39.8264 0.966342 40.7746 1.25734 41.7074L44.8112 0.16837C43.9815 0.0549577 43.1319 0.000499616 42.2658 0C38.2112 0 33.7835 1.19408 29.2528 3.15457ZM15.9408 57.6432C17.1859 58.3346 18.4663 58.9667 19.7691 59.5362L60.3577 20.8255C60.2169 19.4381 60.0065 18.1216 59.7116 16.915C59.6429 16.6357 59.5678 16.3729 59.4962 16.1016L15.9408 57.6432ZM3.25556 46.0856C3.93855 47.2242 4.72948 48.3238 5.61791 49.3775L53.1051 4.08636C52.0694 3.11061 50.9596 2.32022 49.7821 1.71068L3.25556 46.0856Z" fill="url(#paint0_radial_2_1343)"/>
<path fill-rule="evenodd" clip-rule="evenodd" d="M24.5087 61.2994C29.2767 62.7687 34.0824 63.3508 38.2211 62.7892C52.1838 60.8947 59.8175 41.8848 60.5 26.9733L24.5087 61.2994ZM8.79953 52.627C9.7969 53.5139 10.8574 54.3547 11.9707 55.1456L57.8979 11.3418C57.3189 9.96384 56.6782 8.72829 55.9817 7.62614L8.79953 52.627ZM29.2528 3.15457C16.2412 8.78574 -1.09107 26.1659 0.617139 38.8591C0.747468 39.8264 0.966342 40.7746 1.25734 41.7074L44.8112 0.16837C43.9815 0.0549577 43.1319 0.000499616 42.2658 0C38.2112 0 33.7835 1.19408 29.2528 3.15457ZM15.9408 57.6432C17.1859 58.3346 18.4663 58.9667 19.7691 59.5362L60.3577 20.8255C60.2169 19.4381 60.0065 18.1216 59.7116 16.915C59.6429 16.6357 59.5678 16.3729 59.4962 16.1016L15.9408 57.6432ZM3.25556 46.0856C3.93855 47.2242 4.72948 48.3238 5.61791 49.3775L53.1051 4.08636C52.0694 3.11061 50.9596 2.32022 49.7821 1.71068L3.25556 46.0856Z" fill="url(#paint1_linear_2_1343)" style="mix-blend-mode:difference"/>
<path fill-rule="evenodd" clip-rule="evenodd" d="M24.5087 61.2994C29.2767 62.7687 34.0824 63.3508 38.2211 62.7892C52.1838 60.8947 59.8175 41.8848 60.5 26.9733L24.5087 61.2994ZM8.79953 52.627C9.7969 53.5139 10.8574 54.3547 11.9707 55.1456L57.8979 11.3418C57.3189 9.96384 56.6782 8.72829 55.9817 7.62614L8.79953 52.627ZM29.2528 3.15457C16.2412 8.78574 -1.09107 26.1659 0.617139 38.8591C0.747468 39.8264 0.966342 40.7746 1.25734 41.7074L44.8112 0.16837C43.9815 0.0549577 43.1319 0.000499616 42.2658 0C38.2112 0 33.7835 1.19408 29.2528 3.15457ZM15.9408 57.6432C17.1859 58.3346 18.4663 58.9667 19.7691 59.5362L60.3577 20.8255C60.2169 19.4381 60.0065 18.1216 59.7116 16.915C59.6429 16.6357 59.5678 16.3729 59.4962 16.1016L15.9408 57.6432ZM3.25556 46.0856C3.93855 47.2242 4.72948 48.3238 5.61791 49.3775L53.1051 4.08636C52.0694 3.11061 50.9596 2.32022 49.7821 1.71068L3.25556 46.0856Z" fill="url(#paint2_linear_2_1343)" style="mix-blend-mode:screen"/>
<path fill-rule="evenodd" clip-rule="evenodd" d="M24.5087 61.2994C29.2767 62.7687 34.0824 63.3508 38.2211 62.7892C52.1838 60.8947 59.8175 41.8848 60.5 26.9733L24.5087 61.2994ZM8.79953 52.627C9.7969 53.5139 10.8574 54.3547 11.9707 55.1456L57.8979 11.3418C57.3189 9.96384 56.6782 8.72829 55.9817 7.62614L8.79953 52.627ZM29.2528 3.15457C16.2412 8.78574 -1.09107 26.1659 0.617139 38.8591C0.747468 39.8264 0.966342 40.7746 1.25734 41.7074L44.8112 0.16837C43.9815 0.0549577 43.1319 0.000499616 42.2658 0C38.2112 0 33.7835 1.19408 29.2528 3.15457ZM15.9408 57.6432C17.1859 58.3346 18.4663 58.9667 19.7691 59.5362L60.3577 20.8255C60.2169 19.4381 60.0065 18.1216 59.7116 16.915C59.6429 16.6357 59.5678 16.3729 59.4962 16.1016L15.9408 57.6432ZM3.25556 46.0856C3.93855 47.2242 4.72948 48.3238 5.61791 49.3775L53.1051 4.08636C52.0694 3.11061 50.9596 2.32022 49.7821 1.71068L3.25556 46.0856Z" fill="white"/>
<defs>
<radialGradient id="paint0_radial_2_1343" cx="0" cy="0" r="1" gradientUnits="userSpaceOnUse" gradientTransform="translate(60.5) rotate(133.603) scale(87 86.8966)">
<stop stop-color="#78FFF1"/>
<stop offset="0.2" stop-color="#D0DEFF"/>
<stop offset="0.4" stop-color="#DF97DF"/>
<stop offset="0.6" stop-color="#97EBBE"/>
<stop offset="0.8" stop-color="#F1FCAF"/>
<stop offset="1" stop-color="#C2E3F1"/>
</radialGradient>
<linearGradient id="paint1_linear_2_1343" x1="0.5" y1="0" x2="75.361" y2="27.1625" gradientUnits="userSpaceOnUse">
<stop stop-color="white"/>
<stop offset="0.25"/>
<stop offset="0.5" stop-color="white"/>
<stop offset="0.75"/>
<stop offset="1" stop-color="white"/>
</linearGradient>
<linearGradient id="paint2_linear_2_1343" x1="0.5" y1="0" x2="75.361" y2="27.1625" gradientUnits="userSpaceOnUse">
<stop stop-color="white"/>
<stop offset="0.234375"/>
<stop offset="0.489583" stop-color="white"/>
<stop offset="0.734375"/>
<stop offset="1" stop-color="white"/>
</linearGradient>
</defs>
</svg>
